<svg width="268" height="233" viewBox="0 0 268 233" fill="none" xmlns="http://www.w3.org/2000/svg"><rect width="268" height="233" rx="23" fill="#F1FFD2"/><mask id="m2a" style="mask-type:alpha" maskUnits="userSpaceOnUse" x="0" y="0" width="268" height="233"><rect width="268" height="233" rx="23" fill="#F1FFD2"/></mask><g mask="url(#m2a)"><mask id="m2b" style="mask-type:alpha" maskUnits="userSpaceOnUse" x="-131" y="88" width="441" height="268"><path d="M26.47 150.85C-49.12 90.38-110 125.66-131 150.85V248.48L-33.37 355.56C36.97 352.41 192.75 341.7 253.22 324.07C313.69 306.43 314.11 255.83 306.76 232.74C300.46 169.75 284.09 54.48 268.97 97.31C250.07 150.85 120.95 226.44 26.47 150.85Z" fill="#B3FF00"/></mask><g mask="url(#m2b)"><circle cx="83.16" cy="79.86" r="188.96" fill="#B3FF00"/></g><path d="M135.5 63.23C137.7 52.56 142.73 40.29 152.2 34.03C155 32.18 158.95 30.7 162.37 31.29C163.85 31.55 165.19 32.37 165.97 33.67C170.7 41.54 163.93 68.45 161.78 77.05C169.69 66.8 178.04 58.44 191.59 56.81C195.7 56.32 202.45 56.46 205.87 59.1C206.91 59.91 207.55 61.02 207.69 62.33C208.03 65.52 205.95 68.79 203.91 71.06C199.47 76.01 193.46 79.62 188.52 84.06C192.17 86.79 195.01 89.96 196.51 94.33C199.38 102.7 196.21 110.45 192.48 117.9C198.27 117.72 203.03 118.03 208.08 121.14C212.33 123.75 215.58 127.79 216.65 132.7C217.53 136.71 216.74 140.91 214.47 144.34C210.63 150.23 204.15 152.51 197.6 153.95C199.86 157.39 201.85 160.87 203.01 164.84C204.72 170.73 204.6 177.16 201.53 182.59C198.98 187.12 194.7 190.21 189.7 191.56C181.45 193.8 173.92 191.55 166.71 187.45C166.22 191.12 165.43 194.82 163.71 198.12C160.42 204.4 154.66 208.48 147.92 210.47C139.08 213.08 128.29 212.44 120.16 207.9C112.63 203.69 109.5 197.45 107.19 189.5C102.61 192.64 97.98 194.89 92.37 195.44C86.71 196 80.86 194.51 76.49 190.77C73.1 187.92 71.03 183.81 70.75 179.39C70.28 171.56 74.59 165.52 79.52 159.95C74.63 159.27 70.18 158.48 66.13 155.46C62.64 152.84 60.37 149.07 59.86 144.72C59.29 139.62 60.8 134.51 64.04 130.52C68.86 124.59 75.24 123.05 82.52 122.27C78.67 119.08 75.78 115.4 74.37 110.53C72.97 105.67 73.35 100.14 75.85 95.69C78.23 91.48 82.25 88.65 86.91 87.45C94.59 85.47 100.99 88.27 107.5 92.01C107.48 89.25 107.52 86.5 107.91 83.77C109.17 74.88 113.61 69.48 120.53 64.25C122.85 63.12 125.65 62.68 128.17 62.1C130.72 62.27 133.03 62.58 135.5 63.23Z" fill="#3794FE"/><path d="M135.5 63.23C137.7 52.56 142.73 40.29 152.2 34.03C155 32.18 158.95 30.7 162.37 31.29C163.85 31.55 165.19 32.37 165.97 33.67C170.7 41.54 163.93 68.45 161.78 77.05C169.69 66.8 178.04 58.44 191.59 56.81C195.7 56.32 202.45 56.46 205.87 59.1C206.91 59.91 207.55 61.02 207.69 62.33C208.03 65.52 205.95 68.79 203.91 71.06C199.47 76.01 193.46 79.62 188.52 84.06C183.98 81.95 179.44 80.67 174.37 80.85C165.19 81.19 159.14 86.08 153.21 92.5C153.33 86.9 152.72 81.4 150.32 76.27C147.24 69.69 142.24 65.7 135.5 63.23Z" fill="#02CF99"/><circle cx="116" cy="134" r="17" fill="white"/><circle cx="154" cy="134" r="15" fill="white"/><circle cx="113" cy="135" r="7" fill="#4A4A4A"/><circle cx="153" cy="134" r="6" fill="#4A4A4A"/><path d="M123 165C127 170 141 172 149 165" stroke="#4A4A4A" stroke-width="3" stroke-linecap="round"/></g></g></svg>
