<svg width="268" height="233" viewBox="0 0 268 233" fill="none" xmlns="http://www.w3.org/2000/svg"><mask id="m1a" style="mask-type:alpha" maskUnits="userSpaceOnUse" x="0" y="0" width="268" height="233"><rect width="268" height="233" rx="23" fill="#F1FFD2"/></mask><g mask="url(#m1a)"><g clip-path="url(#cl1a)"><path d="M309.591 -8.65186H-41.652V232.652H309.591V-8.65186Z" stroke="#0077FF" stroke-opacity="0.12" stroke-miterlimit="10"/><path d="M-41.652 210.71H309.591" stroke="#0077FF" stroke-opacity="0.12" stroke-miterlimit="10"/><path d="M-41.652 188.775H309.591" stroke="#0077FF" stroke-opacity="0.12" stroke-miterlimit="10"/><path d="M-41.652 166.841H309.591" stroke="#0077FF" stroke-opacity="0.12" stroke-miterlimit="10"/><path d="M-41.652 144.906H309.591" stroke="#0077FF" stroke-opacity="0.12" stroke-miterlimit="10"/><path d="M-41.652 122.964H309.591" stroke="#0077FF" stroke-opacity="0.12" stroke-miterlimit="10"/><path d="M-41.652 101.029H309.591" stroke="#0077FF" stroke-opacity="0.12" stroke-miterlimit="10"/><path d="M-41.652 79.0942H309.591" stroke="#0077FF" stroke-opacity="0.12" stroke-miterlimit="10"/><path d="M-41.652 57.1592H309.591" stroke="#0077FF" stroke-opacity="0.12" stroke-miterlimit="10"/><path d="M-41.652 35.2178H309.591" stroke="#0077FF" stroke-opacity="0.12" stroke-miterlimit="10"/><path d="M-41.652 13.2827H309.591" stroke="#0077FF" stroke-opacity="0.12" stroke-miterlimit="10"/><path d="M265.686 -8.65186V232.652" stroke="#0077FF" stroke-opacity="0.12" stroke-miterlimit="10"/><path d="M243.737 -8.65186V232.652" stroke="#0077FF" stroke-opacity="0.12" stroke-miterlimit="10"/><path d="M221.782 -8.65186V232.652" stroke="#0077FF" stroke-opacity="0.12" stroke-miterlimit="10"/><path d="M199.826 -8.65186V232.652" stroke="#0077FF" stroke-opacity="0.12" stroke-miterlimit="10"/><path d="M177.877 -8.65186V232.652" stroke="#0077FF" stroke-opacity="0.12" stroke-miterlimit="10"/><path d="M155.922 -8.65186V232.652" stroke="#0077FF" stroke-opacity="0.12" stroke-miterlimit="10"/><path d="M133.973 -8.65186V232.652" stroke="#0077FF" stroke-opacity="0.12" stroke-miterlimit="10"/><path d="M112.017 -8.65186V232.652" stroke="#0077FF" stroke-opacity="0.12" stroke-miterlimit="10"/><path d="M90.0684 -8.65186V232.652" stroke="#0077FF" stroke-opacity="0.12" stroke-miterlimit="10"/><path d="M68.1126 -8.65186V232.652" stroke="#0077FF" stroke-opacity="0.12" stroke-miterlimit="10"/><path d="M46.1569 -8.65186V232.652" stroke="#0077FF" stroke-opacity="0.12" stroke-miterlimit="10"/><path d="M24.2082 -8.65186V232.652" stroke="#0077FF" stroke-opacity="0.12" stroke-miterlimit="10"/><path d="M2.25247 -8.65186V232.652" stroke="#0077FF" stroke-opacity="0.12" stroke-miterlimit="10"/><mask id="m1b" style="mask-type:alpha" maskUnits="userSpaceOnUse" x="-131" y="88" width="441" height="268"><path d="M26.4679 150.852C-49.1167 90.384 -110.004 125.657 -131 150.852V248.482L-33.3699 355.56C36.9658 352.411 192.754 341.703 253.222 324.066C313.689 306.43 314.109 255.83 306.761 232.735C300.462 169.748 284.085 54.4813 268.968 97.3126C250.072 150.852 120.949 226.436 26.4679 150.852Z" fill="#B3FF00"/></mask><g mask="url(#m1b)"><circle cx="83.1563" cy="79.8623" r="188.961" fill="#B3FF00"/></g><path d="M129.762 41.3714C135.44 41.1675 141.023 40.3772 146.587 39.2512C151.689 39.4805 156.717 39.5339 161.802 40.1435C163.57 40.3553 166.433 41.2309 168.053 40.589C169.929 41.052 171.846 41.4511 173.657 42.1312L174.408 42.5136C178.899 44.7665 183.871 46.0115 188.353 48.3458C204.656 56.8312 215.721 71.5313 221.609 88.7617C227.781 106.809 225.14 128.353 216.829 145.28C207.855 163.809 191.884 177.988 172.452 184.67C152.518 191.348 127.963 190.469 109.055 180.863C96.5722 174.522 85.6287 163.656 79.1282 151.232C73.8546 156.453 66.1001 156.947 59.0461 156.886C49.5749 156.807 36.8065 154.208 29.8856 147.201C26.0821 143.35 23.8334 137.889 24.0097 132.462C24.2101 126.309 26.8289 118.909 31.5032 114.813C33.7729 112.822 35.9283 112.367 38.4228 110.993C37.5738 106.275 38.2355 101.203 41.0644 97.2208C42.3764 95.3741 44.3349 93.7111 46.6592 93.4486C49.1641 93.1597 51.8655 94.4201 53.697 96.0699C55.8297 97.991 56.4455 100.827 56.5067 103.588C56.6136 108.415 54.8327 118.673 58.5062 122.161C60.9959 124.528 65.279 124.432 68.4998 124.344L70.1755 123.412L70.6561 123.338C71.5509 121.701 70.2444 113.592 70.4273 110.914C71.0886 101.243 73.0558 92 76.9667 83.1151C84.2005 66.679 99.5376 52.7793 115.91 45.8006C120.149 43.9936 124.825 43.3517 129.083 41.6485L129.762 41.3714Z" fill="#3794FE"/><path d="M104.706 76.6715C115.751 76.2702 127.057 76.861 138.072 77.7643C142.545 78.1314 146.99 78.7739 151.474 79.001C162.086 79.5384 172.745 78.8885 183.325 79.4333C185.198 79.5296 187.568 79.6062 189.279 80.3909C190.863 82.2753 191.16 84.0673 190.95 86.5035C190.331 93.8249 187.489 101.295 181.776 106.113C177.498 109.719 171.946 112.533 166.246 112.017C162.226 111.321 158.616 110.419 155.229 107.986C149.863 104.135 146.862 98.5818 146.379 92.0044C146.242 90.1401 146.368 88.2715 146.066 86.4204C145.074 85.8077 144.469 86.0528 143.341 86.1272C140.928 88.8316 139.714 95.5885 137.657 99.1901C135.164 103.558 131.491 106.757 126.558 107.995C121.608 109.238 116.071 108.096 111.748 105.452C107.436 102.809 103.82 98.3368 102.69 93.3348C101.518 88.149 101.845 81.2355 104.706 76.6715Z" fill="#4A4A4A"/><path d="M162.972 84.7394C163.539 85.2256 164.212 85.5451 164.395 86.3066C165.202 89.685 162.762 95.2821 161.139 98.2623C160.034 100.28 159.441 101.129 157.21 101.79C156.342 100.836 155.281 99.7065 155.202 98.3543C154.962 94.245 160.17 87.4531 162.972 84.7394Z" fill="#FFFEF8"/><path d="M118.532 84.8038C119.567 84.9644 119.717 84.876 120.569 85.5713C120.93 86.7923 120.929 87.7813 120.783 89.0504C120.317 93.1115 118.588 97.9122 115.29 100.459C114.835 100.232 114.206 99.9647 113.793 99.6452C112.849 98.9144 112.536 98.4505 112.368 97.2514C111.847 93.536 116.394 87.6982 118.532 84.8038Z" fill="#FFFEF8"/><path d="M120.303 116.804C126.501 116.647 128.981 124.887 136.428 128.056C139.212 129.237 142.219 129.797 145.241 129.697C155.556 129.386 155.822 121.351 162.505 119.194C163.696 118.809 164.203 119.019 165.272 119.57C165.639 120.174 165.957 120.725 166.097 121.43C166.538 123.693 165.949 124.966 164.783 126.843C160.58 131.675 155.604 135.224 149.234 136.48C140.896 138.125 132.416 135.285 125.552 130.559C121.879 128.029 118.576 124.997 117.707 120.437C118.091 118.831 119.177 117.951 120.303 116.804Z" fill="#4A4A4A"/></g></g><defs><clipPath id="cl1a"><rect width="351.939" height="242" fill="white" transform="translate(-42 -9)"/></clipPath></defs></svg>
