<svg width="268" height="233" viewBox="0 0 268 233" fill="none" xmlns="http://www.w3.org/2000/svg"><mask id="m1a" style="mask-type:alpha" maskUnits="userSpaceOnUse" x="0" y="0" width="268" height="233"><rect width="268" height="233" rx="23" fill="#F1FFD2"/></mask><g mask="url(#m1a)"><mask id="m1b" style="mask-type:alpha" maskUnits="userSpaceOnUse" x="-131" y="88" width="441" height="268"><path d="M26.47 150.85C-49.12 90.38-110 125.66-131 150.85V248.48L-33.37 355.56C36.97 352.41 192.75 341.7 253.22 324.07C313.69 306.43 314.11 255.83 306.76 232.74C300.46 169.75 284.09 54.48 268.97 97.31C250.07 150.85 120.95 226.44 26.47 150.85Z" fill="#B3FF00"/></mask><g mask="url(#m1b)"><circle cx="83.16" cy="79.86" r="188.96" fill="#B3FF00"/></g><path d="M129.76 41.37C135.44 41.17 141.02 40.38 146.59 39.25C151.69 39.48 156.72 39.53 161.8 40.14C163.57 40.36 166.43 41.23 168.05 40.59C169.93 41.05 171.85 41.45 173.66 42.13L174.41 42.51C178.9 44.77 183.87 46.01 188.35 48.35C204.66 56.83 215.72 71.53 221.61 88.76C227.78 106.81 225.14 128.35 216.83 145.28C207.86 163.81 191.88 177.99 172.45 184.67C152.52 191.35 127.96 190.47 109.06 180.86C96.57 174.52 85.63 163.66 79.13 151.23C73.85 156.45 66.1 156.95 59.05 156.89C49.57 156.81 36.81 154.21 29.89 147.2C26.08 143.35 23.83 137.89 24.01 132.46C24.21 126.31 26.83 118.91 31.5 114.81C33.77 112.82 35.93 112.37 38.42 110.99C37.57 106.28 38.24 101.2 41.06 97.22C42.38 95.37 44.33 93.71 46.66 93.45C49.16 93.16 51.87 94.42 53.7 96.07C55.83 97.99 56.45 100.83 56.51 103.59C56.61 108.42 54.83 118.67 58.51 122.16C61 124.53 65.28 124.43 68.5 124.34L70.18 123.41L70.66 123.34C71.55 121.7 70.24 113.59 70.43 110.91C71.09 101.24 73.06 92 76.97 83.12C84.2 66.68 99.54 52.78 115.91 45.8C120.15 43.99 124.83 43.35 129.08 41.65L129.76 41.37Z" fill="#3794FE"/><path d="M38.42 110.99C39.3 110.34 39.7 110.11 40.82 110.28C45.13 110.9 52.41 114.52 54.61 118.43C55.62 120.21 55.57 122.74 55 124.66C54.56 126.11 53.27 128.36 53.33 129.83C53.4 131.76 54.89 133.48 55.24 135.43C56.12 140.31 51.46 148.11 47.11 150.17C45.96 150.72 44.39 151.16 43.14 150.72C42.66 150.55 42.56 150.13 42.33 149.73C42.94 146.75 47.78 143.36 49.88 141.15L45.76 140.69C42.9 140.46 39.01 140.77 36.96 138.47L37.05 137.73C41 135.37 47.13 138.77 50.7 136.09C50.86 134.94 50.87 134.21 50.17 133.22C47.2 128.99 39.28 130.31 36.63 126.49C37.25 125.65 37.82 125.18 38.93 125.12C42.39 124.94 47.03 126.77 50.53 127.37C50.92 124.58 51.37 121.82 49.54 119.4C46.7 115.66 39.35 116.02 38.42 110.99Z" fill="#0077FF"/><path d="M68.5 124.34L70.18 123.41C70.55 123.79 70.88 124.11 71.08 124.62C72.71 128.62 73.22 133.85 74.29 138.09C75.31 142.15 77.12 146.39 77.62 150.53L77.17 151.09C76.05 151.06 75.42 151.02 74.58 150.2C70.6 146.3 68.83 129.98 68.5 124.34Z" fill="#0077FF"/><path d="M104.71 76.67C115.75 76.27 127.06 76.86 138.07 77.76C142.55 78.13 146.99 78.77 151.47 79C162.09 79.54 172.75 78.89 183.33 79.43C185.2 79.53 187.57 79.61 189.28 80.39C190.86 82.28 191.16 84.07 190.95 86.5C190.33 93.82 187.49 101.3 181.78 106.11C177.5 109.72 171.95 112.53 166.25 112.02C162.23 111.32 158.62 110.42 155.23 107.99C149.86 104.14 146.86 98.58 146.38 92C146.24 90.14 146.37 88.27 146.07 86.42C145.07 85.81 144.47 86.05 143.34 86.13C140.93 88.83 139.71 95.59 137.66 99.19C135.16 103.56 131.49 106.76 126.56 108C121.61 109.24 116.07 108.1 111.75 105.45C107.44 102.81 103.82 98.34 102.69 93.33C101.52 88.15 101.85 81.24 104.71 76.67Z" fill="#4A4A4A"/><path d="M162.97 84.74C163.54 85.23 164.21 85.55 164.4 86.31C165.2 89.69 162.76 95.28 161.14 98.26C160.03 100.28 159.44 101.13 157.21 101.79C156.34 100.84 155.28 99.71 155.2 98.35C154.96 94.25 160.17 87.45 162.97 84.74Z" fill="#FFFEF8"/><path d="M118.53 84.8C119.57 84.96 119.72 84.88 120.57 85.57C120.93 86.79 120.93 87.78 120.78 89.05C120.32 93.11 118.59 97.91 115.29 100.46C114.84 100.23 114.21 99.96 113.79 99.65C112.85 98.91 112.54 98.45 112.37 97.25C111.85 93.54 116.39 87.7 118.53 84.8Z" fill="#FFFEF8"/><path d="M120.3 116.8C126.5 116.65 128.98 124.89 136.43 128.06C139.21 129.24 142.22 129.8 145.24 129.7C155.56 129.39 155.82 121.35 162.51 119.19C163.7 118.81 164.2 119.02 165.27 119.57C165.64 120.17 165.96 120.73 166.1 121.43C166.54 123.69 165.95 124.97 164.78 126.84C160.58 131.68 155.6 135.22 149.23 136.48C140.9 138.13 132.42 135.29 125.55 130.56C121.88 128.03 118.58 125 117.71 120.44C118.09 118.83 119.18 117.95 120.3 116.8Z" fill="#4A4A4A"/></g></g></svg>
