<svg width="268" height="233" viewBox="0 0 268 233" fill="none" xmlns="http://www.w3.org/2000/svg"><mask id="m3a" style="mask-type:alpha" maskUnits="userSpaceOnUse" x="0" y="0" width="268" height="233"><rect width="268" height="233" rx="23" fill="#F1FFD2"/></mask><g mask="url(#m3a)"><g clip-path="url(#cl3a)"><mask id="m3b" style="mask-type:alpha" maskUnits="userSpaceOnUse" x="-131" y="88" width="441" height="268"><path d="M26.47 150.85C-49.12 90.38-110 125.66-131 150.85V248.48L-33.37 355.56C36.97 352.41 192.75 341.7 253.22 324.07C313.69 306.43 314.11 255.83 306.76 232.74C300.46 169.75 284.09 54.48 268.97 97.31C250.07 150.85 120.95 226.44 26.47 150.85Z" fill="#B3FF00"/></mask><g mask="url(#m3b)"><circle cx="83.16" cy="79.86" r="188.96" fill="#B3FF00"/></g><path d="M124.24 26.19C128.14 25.8 132.22 25.98 135.99 27.06C142.58 28.93 146.62 32.95 149.87 38.86C151.76 36.93 153.75 35.22 156.23 34.12C161.81 31.63 168.22 31.96 173.8 34.23C178.85 36.29 183.5 40.08 185.54 45.29C187.37 49.98 186.62 54.05 184.66 58.53C187.08 58.15 189.52 57.86 191.96 57.66C198.28 57.17 205.32 58.69 210.17 62.99C214.2 66.56 216.37 71.72 216.6 77.08C216.85 83.11 214.9 88.26 210.85 92.63C215.78 94.79 219.87 97.74 222.76 102.41C225.91 107.47 226.75 113.91 225.34 119.68C223.84 125.78 220.26 129.45 215.03 132.55C217.49 136.2 219.05 139.47 219.71 143.87C220.86 151.54 217.77 161.47 210.41 165.16C208.89 165.92 201 166.68 200.6 167.66C200.38 168.2 200.52 169.78 200.49 170.41C200.24 175.29 199.16 179.03 196.19 183.01C192.99 187.3 188.23 189.84 182.96 190.47C175.19 191.4 169.18 188.32 163.27 183.59C161.21 188.32 158.61 192.39 154.04 194.98C149.32 197.66 144.18 197.37 139.15 195.88C134.02 193.06 130.83 189.97 127.8 184.94C127.42 185.42 127.06 185.92 126.69 186.41C122.42 191.96 116.37 195.41 109.42 196.25C104.41 196.86 99.16 195.9 95.16 192.65C91.01 189.29 89.63 184.99 89.07 179.84C86.16 182.47 83.25 184.56 79.52 185.85C74.8 187.49 69.5 187.55 64.99 185.22C61.56 183.45 59.09 180.35 57.98 176.64C55.87 169.66 58.31 162.76 61.56 156.6C61.18 156.57 60.79 156.54 60.41 156.5C54.51 155.93 48.9 153.4 45.15 148.65C41.76 144.35 40.52 138.84 41.16 133.44C42.14 125.29 46.36 118.98 52.59 113.94C49.66 109.52 47.79 104.62 47.34 99.3C46.74 92.24 48.52 84.94 53.21 79.53C58.13 73.86 64.11 72.22 71.31 71.68C70.1 64.26 70.07 57.36 73.43 50.47C76.58 43.99 81.96 39.04 88.77 36.75C96.48 34.15 103.7 34.98 110.87 38.6C111.49 37.09 112.1 35.55 112.88 34.13C115.51 29.31 119.18 27.62 124.24 26.19Z" fill="#005DBA"/><path d="M92.6 81.68C93.99 81.97 95.26 82.47 96.58 83.01C101.37 85 125.84 95.76 127.01 99.51C127.21 100.13 127.22 100.01 126.92 100.57C124.89 104.43 112.77 106.44 108.58 107.53C106.53 108.17 104.46 108.84 102.33 109.16C100.45 109.44 98.81 109.27 97.26 108.13C97.24 107.36 97.18 107.29 97.56 106.53C99.87 101.93 107.31 100.42 111.76 99.09C105.72 95.77 98.6 93.97 92.84 90.16C90.85 88.84 90.02 87.87 89.56 85.53C90.09 83.62 91.13 82.86 92.6 81.68Z" fill="white"/><path d="M175.91 81.02C177.41 81.03 178.41 81.35 179.77 81.97C180.64 83.28 180.58 83.35 180.47 84.83C177.57 89.91 162.61 96.14 156.99 99.02C160.95 100.22 165.09 101.28 168.91 102.87C171.11 103.78 173.14 104.71 174.12 107.02C173.67 108.58 173.45 108.71 172.28 109.73C170.12 110.34 168.23 109.68 166.11 109.16C159.48 107.13 148.41 106.62 143.12 102.28C142.88 101.46 142.67 101.25 142.98 100.4C144.74 95.62 170.22 83.98 175.91 81.02Z" fill="white"/><path d="M130.28 113.59C136.84 113.19 142.56 113.72 148.33 117.21C152.55 119.77 157.2 124.42 158.24 129.46C158.49 130.67 158.46 130.85 157.81 131.86C152.49 132.63 144.16 122.8 138.37 120.65L137.7 120.41C121.25 117.61 120.36 132.24 111.62 132.43C110.81 131.9 110.54 131.95 110.22 130.97C109.68 129.27 110.37 127.2 111.24 125.73C115.4 118.73 122.69 115.21 130.28 113.59Z" fill="white"/></g></g></g></svg>
